<?xml version="1.0" encoding="iso-8859-1"?>
<!-- Generator: Adobe Illustrator 19.0.0, SVG Export Plug-In . SVG Version: 6.00 Build 0)  -->
<svg version="1.1" id="Capa_1" xmlns="http://www.w3.org/2000/svg" xmlns:xlink="http://www.w3.org/1999/xlink" x="0px" y="0px"
	 viewBox="0 0 60 60" style="enable-background:new 0 0 60 60;" xml:space="preserve">
<g>
	<circle cx="5" cy="17" r="1"/>
	<circle cx="8" cy="20" r="1"/>
	<circle cx="11" cy="17" r="1"/>
	<circle cx="14" cy="14" r="1"/>
	<circle cx="14" cy="20" r="1"/>
	<circle cx="17" cy="17" r="1"/>
	<circle cx="20" cy="14" r="1"/>
	<circle cx="20" cy="20" r="1"/>
	<circle cx="23" cy="17" r="1"/>
	<circle cx="26" cy="14" r="1"/>
	<circle cx="26" cy="20" r="1"/>
	<circle cx="29" cy="17" r="1"/>
	<circle cx="32" cy="14" r="1"/>
	<circle cx="32" cy="20" r="1"/>
	<circle cx="35" cy="17" r="1"/>
	<circle cx="38" cy="14" r="1"/>
	<circle cx="38" cy="20" r="1"/>
	<circle cx="41" cy="17" r="1"/>
	<circle cx="44" cy="14" r="1"/>
	<circle cx="44" cy="20" r="1"/>
	<circle cx="47" cy="17" r="1"/>
	<circle cx="50" cy="20" r="1"/>
	<circle cx="53" cy="17" r="1"/>
	<circle cx="56" cy="20" r="1"/>
	<path d="M18.707,36.293C18.52,36.105,18.265,36,18,36h-2c-0.265,0-0.52,0.105-0.707,0.293l-1,1C14.105,37.48,14,37.735,14,38v2
		c0,0.265,0.105,0.52,0.293,0.707l1,1C15.48,41.895,15.735,42,16,42h2c0.265,0,0.52-0.105,0.707-0.293l1-1
		C19.895,40.52,20,40.265,20,40v-2c0-0.265-0.105-0.52-0.293-0.707L18.707,36.293z M18,39.586L17.586,40h-1.172L16,39.586v-1.172
		L16.414,38h1.172L18,38.414V39.586z"/>
	<path d="M44.707,36.293C44.52,36.105,44.265,36,44,36h-2c-0.265,0-0.52,0.105-0.707,0.293l-1,1C40.105,37.48,40,37.735,40,38v2
		c0,0.265,0.105,0.52,0.293,0.707l1,1C41.48,41.895,41.735,42,42,42h2c0.265,0,0.52-0.105,0.707-0.293l1-1
		C45.895,40.52,46,40.265,46,40v-2c0-0.265-0.105-0.52-0.293-0.707L44.707,36.293z M44,39.586L43.586,40h-1.172L42,39.586v-1.172
		L42.414,38h1.172L44,38.414V39.586z"/>
	<path d="M59,14c0.552,0,1-0.448,1-1v-2.841C60,6.763,57.237,4,53.841,4H51c-0.552,0-1,0.448-1,1H39V2.837
		C39,1.273,37.727,0,36.163,0H23.837C22.273,0,21,1.273,21,2.837V5H10c0-0.552-0.448-1-1-1H6.159C2.763,4,0,6.763,0,10.159V13
		c0,0.552,0.448,1,1,1v10v26c-0.552,0-1,0.448-1,1v2.841C0,57.237,2.763,60,6.159,60H9c0.552,0,1-0.448,1-1h40c0,0.552,0.448,1,1,1
		h2.841C57.237,60,60,57.237,60,53.841V51c0-0.552-0.448-1-1-1V24V14z M53.841,6C56.134,6,58,7.866,58,10.159V12h-6v-2V6H53.841z
		 M23,2.837C23,2.375,23.375,2,23.837,2h12.325C36.625,2,37,2.375,37,2.837V5H23V2.837z M22,7h16h12v2H10V7H22z M2,10.159
		C2,7.866,3.866,6,6.159,6H8v4v2H2V10.159z M7,14c0,0.552,0.448,1,1,1s1-0.448,1-1c0.552,0,1-0.448,1-1v-2c0,0.552,0.448,1,1,1
		s1-0.448,1-1h4c0,0.552,0.448,1,1,1s1-0.448,1-1h4c0,0.552,0.448,1,1,1s1-0.448,1-1h4c0,0.552,0.448,1,1,1s1-0.448,1-1h4
		c0,0.552,0.448,1,1,1s1-0.448,1-1h4c0,0.552,0.448,1,1,1s1-0.448,1-1h4c0,0.552,0.448,1,1,1s1-0.448,1-1h2v2c-0.552,0-1,0.448-1,1
		c0,0.552,0.448,1,1,1s1-0.448,1-1h4c0,0.552,0.448,1,1,1s1-0.448,1-1v6v3h-3c0-0.552-0.448-1-1-1s-1,0.448-1,1h-4
		c0-0.552-0.448-1-1-1s-1,0.448-1,1h-4c0-0.552-0.448-1-1-1s-1,0.448-1,1h-4c0-0.552-0.448-1-1-1s-1,0.448-1,1h-4
		c0-0.552-0.448-1-1-1s-1,0.448-1,1h-4c0-0.552-0.448-1-1-1s-1,0.448-1,1h-4c0-0.552-0.448-1-1-1s-1,0.448-1,1h-4
		c0-0.552-0.448-1-1-1s-1,0.448-1,1H6c0-0.552-0.448-1-1-1s-1,0.448-1,1H3v-9H7z M6.159,58C3.866,58,2,56.134,2,53.841V52h6v6H6.159
		z M58,53.841C58,56.134,56.134,58,53.841,58H52v-6h6V53.841z M51,50c-0.552,0-1,0.448-1,1v6H10v-6c0-0.552-0.448-1-1-1H3V25h54v25
		H51z"/>
	<path d="M29,39c0-6.617-5.383-12-12-12S5,32.383,5,39s5.383,12,12,12S29,45.617,29,39z M17,49c-5.514,0-10-4.486-10-10
		s4.486-10,10-10s10,4.486,10,10S22.514,49,17,49z"/>
	<path d="M43,27c-6.617,0-12,5.383-12,12s5.383,12,12,12s12-5.383,12-12S49.617,27,43,27z M43,49c-5.514,0-10-4.486-10-10
		s4.486-10,10-10s10,4.486,10,10S48.514,49,43,49z"/>
	<path d="M17,31c-4.411,0-8,3.589-8,8s3.589,8,8,8s8-3.589,8-8S21.411,31,17,31z M17,45c-3.309,0-6-2.691-6-6s2.691-6,6-6
		s6,2.691,6,6S20.309,45,17,45z"/>
	<path d="M43,31c-4.411,0-8,3.589-8,8s3.589,8,8,8s8-3.589,8-8S47.411,31,43,31z M43,45c-3.309,0-6-2.691-6-6s2.691-6,6-6
		s6,2.691,6,6S46.309,45,43,45z"/>
	<path d="M36,51H24c-0.552,0-1,0.448-1,1v3c0,0.552,0.448,1,1,1h12c0.552,0,1-0.448,1-1v-3C37,51.448,36.552,51,36,51z M35,54H25v-1
		h10V54z"/>
</g>
<g>
</g>
<g>
</g>
<g>
</g>
<g>
</g>
<g>
</g>
<g>
</g>
<g>
</g>
<g>
</g>
<g>
</g>
<g>
</g>
<g>
</g>
<g>
</g>
<g>
</g>
<g>
</g>
<g>
</g>
</svg>
